<svg width="26" height="26" viewBox="0 0 26 26" fill="none" xmlns="http://www.w3.org/2000/svg">
<path d="M23.8337 14.0835V6.50016C23.8337 5.92553 23.6054 5.37443 23.1991 4.9681C22.7927 4.56177 22.2416 4.3335 21.667 4.3335H4.33366C3.75902 4.3335 3.20792 4.56177 2.80159 4.9681C2.39527 5.37443 2.16699 5.92553 2.16699 6.50016V19.5002C2.16699 20.6918 3.14199 21.6668 4.33366 21.6668H13.0003" stroke="white" stroke-width="1.08333" stroke-linecap="round" stroke-linejoin="round"/>
<path d="M23.8337 7.5835L14.1162 13.7585C13.7817 13.968 13.395 14.0792 13.0003 14.0792C12.6056 14.0792 12.2189 13.968 11.8845 13.7585L2.16699 7.5835" stroke="white" stroke-width="1.08333" stroke-linecap="round" stroke-linejoin="round"/>
<path d="M17.333 20.5832L19.4997 22.7498L23.833 18.4165" stroke="white" stroke-width="1.08333" stroke-linecap="round" stroke-linejoin="round"/>
</svg>
