<svg width="20" height="20" viewBox="0 0 20 20" fill="none" xmlns="http://www.w3.org/2000/svg">
<path d="M5.83398 16.6667H14.1673" stroke="white" stroke-width="0.833333" stroke-linecap="round" stroke-linejoin="round"/>
<path d="M8.33398 16.6666C12.9173 14.5833 9.00065 11.3333 10.834 8.33325" stroke="white" stroke-width="0.833333" stroke-linecap="round" stroke-linejoin="round"/>
<path d="M7.91732 7.83325C8.83398 8.49991 9.41732 9.66658 9.83398 10.9166C8.16732 11.2499 6.91732 11.2499 5.83398 10.6666C4.83398 10.1666 3.91732 9.08325 3.33398 7.16658C5.66732 6.74992 7.00065 7.16658 7.91732 7.83325Z" stroke="white" stroke-width="0.833333" stroke-linecap="round" stroke-linejoin="round"/>
<path d="M11.7498 4.99992C11.1145 5.99288 10.7949 7.15504 10.8332 8.33325C12.4165 8.24992 13.5832 7.83325 14.4165 7.16659C15.2498 6.33325 15.7498 5.24992 15.8332 3.33325C13.5832 3.41659 12.4998 4.16659 11.7498 4.99992Z" stroke="white" stroke-width="0.833333" stroke-linecap="round" stroke-linejoin="round"/>
</svg>
