<svg width="20" height="20" viewBox="0 0 20 20" fill="none" xmlns="http://www.w3.org/2000/svg">
<path d="M1.66602 16.6667C1.66602 17.1088 1.84161 17.5327 2.15417 17.8453C2.46673 18.1578 2.89065 18.3334 3.33268 18.3334H16.666C17.108 18.3334 17.532 18.1578 17.8445 17.8453C18.1571 17.5327 18.3327 17.1088 18.3327 16.6667V6.66675L12.4993 10.8334V6.66675L6.66602 10.8334V3.33341C6.66602 2.89139 6.49042 2.46746 6.17786 2.1549C5.8653 1.84234 5.44138 1.66675 4.99935 1.66675H3.33268C2.89065 1.66675 2.46673 1.84234 2.15417 2.1549C1.84161 2.46746 1.66602 2.89139 1.66602 3.33341V16.6667Z" stroke="white" stroke-width="0.833333" stroke-linecap="round" stroke-linejoin="round"/>
<path d="M14.166 15H14.9993" stroke="white" stroke-width="0.833333" stroke-linecap="round" stroke-linejoin="round"/>
<path d="M10 15H10.8333" stroke="white" stroke-width="0.833333" stroke-linecap="round" stroke-linejoin="round"/>
<path d="M5.83398 15H6.66732" stroke="white" stroke-width="0.833333" stroke-linecap="round" stroke-linejoin="round"/>
</svg>
