<svg width="18" height="18" viewBox="0 0 18 18" fill="none" xmlns="http://www.w3.org/2000/svg">
<path d="M1.54688 8.73903C1.48437 8.90741 1.48437 9.09264 1.54688 9.26103C2.15565 10.7371 3.18902 11.9992 4.51596 12.8874C5.8429 13.7755 7.40366 14.2496 9.00038 14.2496C10.5971 14.2496 12.1579 13.7755 13.4848 12.8874C14.8117 11.9992 15.8451 10.7371 16.4539 9.26103C16.5164 9.09264 16.5164 8.90741 16.4539 8.73903C15.8451 7.26292 14.8117 6.00081 13.4848 5.1127C12.1579 4.22459 10.5971 3.75049 9.00038 3.75049C7.40366 3.75049 5.8429 4.22459 4.51596 5.1127C3.18902 6.00081 2.15565 7.26292 1.54688 8.73903Z" stroke="#4A4441" stroke-opacity="0.55" stroke-width="0.75" stroke-linecap="round" stroke-linejoin="round"/>
<path d="M9 11.25C10.2426 11.25 11.25 10.2426 11.25 9C11.25 7.75736 10.2426 6.75 9 6.75C7.75736 6.75 6.75 7.75736 6.75 9C6.75 10.2426 7.75736 11.25 9 11.25Z" stroke="#4A4441" stroke-opacity="0.55" stroke-width="0.75" stroke-linecap="round" stroke-linejoin="round"/>
</svg>
