<svg width="22" height="22" viewBox="0 0 22 22" fill="none" xmlns="http://www.w3.org/2000/svg">
<path d="M5.5 20.1665C7.01878 20.1665 8.25 18.9353 8.25 17.4165C8.25 15.8977 7.01878 14.6665 5.5 14.6665C3.98122 14.6665 2.75 15.8977 2.75 17.4165C2.75 18.9353 3.98122 20.1665 5.5 20.1665Z" stroke="white" stroke-width="0.916667" stroke-linecap="round" stroke-linejoin="round"/>
<path d="M8.25 17.4168H16.0417C16.8926 17.4168 17.7086 17.0788 18.3103 16.4771C18.912 15.8755 19.25 15.0594 19.25 14.2085C19.25 13.3576 18.912 12.5415 18.3103 11.9399C17.7086 11.3382 16.8926 11.0002 16.0417 11.0002H5.95833C5.10743 11.0002 4.29138 10.6621 3.6897 10.0605C3.08802 9.45878 2.75 8.64273 2.75 7.79183C2.75 6.94093 3.08802 6.12487 3.6897 5.5232C4.29138 4.92152 5.10743 4.5835 5.95833 4.5835H13.75" stroke="white" stroke-width="0.916667" stroke-linecap="round" stroke-linejoin="round"/>
<path d="M16.5 7.3335C18.0188 7.3335 19.25 6.10228 19.25 4.5835C19.25 3.06471 18.0188 1.8335 16.5 1.8335C14.9812 1.8335 13.75 3.06471 13.75 4.5835C13.75 6.10228 14.9812 7.3335 16.5 7.3335Z" stroke="white" stroke-width="0.916667" stroke-linecap="round" stroke-linejoin="round"/>
</svg>
